# xmcd CD database file
#
# Track frame offsets:
#	150
#	14254
#	26351
#	41038
#	55654
#	68970
#	81925
#	99534
#	113878
#	129328
#	140931
#	152144
#	164742
#	177117
#
# Disc length: 2533 seconds
#
# Revision: 0
# Processed by: cddbd v1.5.2PL0 Copyright (c) Steve Scherf et al.
# Submitted via: CDex 1.70beta2
#
DISCID=be09e30e
DTITLE=The Cross Town Cowboys - Save The West
DYEAR=2008
DGENRE=Country
TTITLE0=Save The West
TTITLE1=Pinto Pal
TTITLE2=Cowboy Fop
TTITLE3=Ragtime Cowboy Joe
TTITLE4=Brother To Brother
TTITLE5=So Long To The Red River Valley
TTITLE6=Momma I Miss You
TTITLE7=Along The Santa Fe Trail
TTITLE8=Gypsy
TTITLE9=The New Frontier
TTITLE10=Plan "C"
TTITLE11=Song Of The Bandit
TTITLE12=The Only Cowboy In Heaven
TTITLE13=Lasso My Soul
EXTD=YEAR: 2008
EXTT0=
EXTT1=
EXTT2=
EXTT3=
EXTT4=
EXTT5=
EXTT6=
EXTT7=
EXTT8=
EXTT9=
EXTT10=
EXTT11=
EXTT12=
EXTT13=
PLAYORDER=
